<svg id="Capa_1" enable-background="new 0 0 512.52 512.52" height="512" viewBox="0 0 512.52 512.52" width="512" xmlns="http://www.w3.org/2000/svg"><g><g><path d="m512.52 187.167-3.34 6.69c-.71 1.45-18.07 35.74-57.99 69.95-23.36 20.02-49.72 35.97-78.35 47.4-35.65 14.24-74.87 21.46-116.58 21.46s-80.93-7.22-116.58-21.46c-28.63-11.43-54.99-27.38-78.35-47.4-39.92-34.21-57.28-68.5-57.99-69.95l-3.34-6.69 3.34-6.69c.71-1.44 18.07-35.74 57.99-69.95 23.36-20.01 49.72-35.96 78.35-47.4 35.65-14.24 74.87-21.46 116.58-21.46s80.93 7.22 116.58 21.46c28.63 11.44 54.99 27.39 78.35 47.4 39.92 34.21 57.28 68.51 57.99 69.95z" fill="#fbf3f3"/><path d="m512.52 187.167-3.34 6.69c-.71 1.45-18.07 35.74-57.99 69.95-23.36 20.02-49.72 35.97-78.35 47.4-35.65 14.24-74.87 21.46-116.58 21.46v-291c41.71 0 80.93 7.22 116.58 21.46 28.63 11.44 54.99 27.39 78.35 47.4 39.92 34.21 57.28 68.51 57.99 69.95z" fill="#e8e3f0"/><ellipse cx="256.26" cy="187.167" fill="#adcfff" rx="114.12" ry="114.12" transform="matrix(.707 -.707 .707 .707 -57.291 236.023)"/><path d="m370.38 187.167c0 63.03-51.09 114.12-114.12 114.12v-228.24c63.03 0 114.12 51.101 114.12 114.12z" fill="#6aa8ff"/><ellipse cx="256.26" cy="189.437" fill="#363671" rx="59.42" ry="59.42" transform="matrix(.257 -.967 .967 .257 7.395 388.49)"/><path d="m315.68 189.437c0 32.82-26.6 59.42-59.42 59.42v-118.84c32.82 0 59.42 26.6 59.42 59.42z" fill="#16164d"/><circle cx="298.311" cy="151.391" fill="#fbf3f3" r="28.877"/></g><ellipse cx="412.11" cy="370.703" fill="#9bdc05" rx="100.15" ry="100.15" transform="matrix(.707 -.707 .707 .707 -141.422 399.982)"/><path d="m512.26 370.703c0 55.22-44.93 100.15-100.15 100.15v-200.3c55.22 0 100.15 44.92 100.15 100.15z" fill="#00cb76"/><path d="m412.11 329.223h-15v26.48h-26.48v30h26.48v26.48h15l8.324-26.48v-30z" fill="#fbf3f3"/><path d="m453.59 355.703v30h-26.48v26.48h-15v-82.96h15v26.48z" fill="#e8e3f0"/></g></svg>